<?xml version="1.0" encoding="utf-8"?>
<!-- Generator: Adobe Illustrator 19.2.1, SVG Export Plug-In . SVG Version: 6.00 Build 0)  -->
<svg version="1.1" id="layer" xmlns="http://www.w3.org/2000/svg" xmlns:xlink="http://www.w3.org/1999/xlink" x="0px" y="0px"
	 viewBox="0 0 652 652" style="enable-background:new 0 0 652 652;" xml:space="preserve">
<style type="text/css">
	.st0{fill-rule:evenodd;clip-rule:evenodd;}
</style>
<g>
	<path class="st0" d="M26.1,451h8.7c8.3,0,14.7-0.1,20-3c4.4-2.4,7.1-7,7.1-12.2c0-7.1-4.4-11.5-13-12.8c7.4-1.3,11.2-5.1,11.2-11.4
		c0-4.9-2.4-8.9-6.5-11.2c-4.5-2.5-10.2-2.6-17.5-2.6h-10V451L26.1,451z M37.5,419.1v-12.5h2.8c6.4,0,9.2,1.4,9.2,6.2
		c0,4.9-3.1,6.3-9.5,6.3H37.5L37.5,419.1z M37.5,442.2v-14.3h4.6c5.7,0,8.6,2.5,8.6,6.9c0,4.8-2.9,7.4-8.7,7.4H37.5L37.5,442.2z
		 M116.4,397.8H105v31.3c0,8.7-4,13.3-11.8,13.3c-7.7,0-11.6-4.4-11.6-13.3v-31.3H70.3v33.1c0,14.4,7.5,21.5,23.1,21.5
		c15.4,0,22.9-7.2,22.9-21.5V397.8L116.4,397.8z M128.3,451h11.4v-53.2h-11.4V451L128.3,451z M151.9,451h29.6v-9.7h-18.2v-43.5
		h-11.4V451L151.9,451z M188.5,451H204c8,0,14.7-0.3,21.1-4.9c6.5-4.7,10-12.1,10-21.6c0-9.4-3.4-16.8-9.8-21.5
		c-5.9-4.4-12.9-5.2-22.2-5.2h-14.5V451L188.5,451z M199.9,441.4v-33.9h6.3c11.5,0,17.1,4.8,17.1,17c0,12.1-5.5,17-17.1,17H199.9
		L199.9,441.4z M244.8,451h11.4v-53.2h-11.4V451L244.8,451z M268.3,451h10.9v-30.4c0-2.6,0-6.1-0.7-10.6c1.8,4.5,3.4,7.7,4.8,9.4
		l24.2,31.6h11.2v-53.2h-10.9v29.8c0,2.5,0,6,0.7,10.5c-1.8-4.5-3.4-7.6-4.8-9.3l-23.5-31h-11.8V451L268.3,451z M356.8,423v9.4h12.8
		v0.6c0,5.6-5.1,9.5-12.6,9.5c-10,0-17.1-7.1-17.1-18c0-10.9,6.8-18,17.3-18c6.2,0,10,2.5,13.3,6.7l7.7-5.7
		c-5.7-7.2-13-10.9-21.6-10.9c-16.4,0-28.4,11.7-28.4,27.8c0,16.1,11.8,28,28.4,28c14.1,0,24.5-10.5,24.5-26.8c0-0.9,0-1.8-0.1-2.7
		H356.8L356.8,423z M413.3,451h11.4v-53.2h-11.4V451L413.3,451z M436.8,451h10.9v-30.4c0-2.6,0-6.1-0.7-10.6
		c1.8,4.5,3.4,7.7,4.8,9.4l24.2,31.6H487v-53.2h-10.9v29.8c0,2.5,0,6,0.7,10.5c-1.8-4.5-3.4-7.6-4.8-9.3l-23.5-31h-11.8V451
		L436.8,451z M498.9,451h15.4c8,0,14.7-0.3,21.1-4.9c6.5-4.7,10-12.1,10-21.6c0-9.4-3.4-16.8-9.8-21.5c-5.9-4.4-12.9-5.2-22.2-5.2
		h-14.5V451L498.9,451z M510.2,441.4v-33.9h6.3c11.5,0,17.1,4.8,17.1,17c0,12.1-5.5,17-17.1,17H510.2L510.2,441.4z M555.1,451h11.4
		v-53.2h-11.4V451L555.1,451z M572.3,451h12.2l3.7-11.3h20.6l4.3,11.3h13l-20.5-53.2h-13L572.3,451L572.3,451z M606.2,430.8h-14.7
		l5.7-17c0.2-0.7,0.8-3.1,1.6-7.4c0.7,3.9,1.2,6.3,1.5,7.1L606.2,430.8L606.2,430.8z"/>
	<path class="st0" d="M138.9,276.9h7.2c10-0.1,16.9,1.9,20.6,6c3.5,4.4,4.3,12.6,2.3,24.5c-3.6,21.1-14.4,31.5-32.3,31.2h-8
		L138.9,276.9L138.9,276.9z M136,365.5c38.1,0.8,61-19.3,68.7-60.3c5.5-37.2-10.6-55.7-48.4-55.4H108L88.8,365.5H136L136,365.5z
		 M287.6,365.5l4.5-27h-48.6l14.7-88.7h-35.4l-19.2,115.7H287.6L287.6,365.5z M332.7,365.5l6.8-40.6h38.7l4.5-27h-38.7l3.5-21H396
		l4.5-27h-83.9l-19.2,115.7H332.7L332.7,365.5z"/>
	<path class="st0" d="M501.6,256.5l-29.1,51.5h58.3L501.6,256.5L501.6,256.5z M469.2,305.9l-28-49.4h55.9L469.2,305.9L469.2,305.9z
		 M500.5,361.4l-28-49.4h55.9L500.5,361.4L500.5,361.4z M405.2,311.9l-30.3,53.6h60.7L405.2,311.9L405.2,311.9z M437.8,361.4
		l-28-49.4h55.9L437.8,361.4L437.8,361.4z M469.3,314l-29.1,51.5h58.2L469.3,314L469.3,314z M533.1,311.9l-30.3,53.6h60.7
		L533.1,311.9L533.1,311.9z M469.2,198.8l-30.3,53.6h60.7L469.2,198.8L469.2,198.8z M436.6,256.5l-29.1,51.5h58.3L436.6,256.5
		L436.6,256.5z"/>
</g>
</svg>
