<?xml version="1.0" encoding="UTF-8" standalone="no"?>
<!DOCTYPE svg PUBLIC "-//W3C//DTD SVG 1.1//EN" "http://www.w3.org/Graphics/SVG/1.1/DTD/svg11.dtd">
<svg width="100%" height="100%" viewBox="0 0 417 135" version="1.1" xmlns="http://www.w3.org/2000/svg" xmlns:xlink="http://www.w3.org/1999/xlink" xml:space="preserve" xmlns:serif="http://www.serif.com/" style="fill-rule:evenodd;clip-rule:evenodd;stroke-linejoin:round;stroke-miterlimit:2;">
    <g id="アートボード1" transform="matrix(0.841166,0,0,0.634246,-2929.03,-3489.06)">
        <rect x="3482.11" y="5501.11" width="494.701" height="211.703" style="fill:none;"/>
        <g transform="matrix(1.18883,0,0,1.57667,-750.796,-3294.26)">
            <g transform="matrix(2,0,0,2,3755.65,5624.87)">
                <path d="M0,5.506C0.363,3.178 0.227,1.697 0.227,1.322L0.227,-4.125L9.463,-4.125L9.463,5.506L0,5.506ZM18.162,5.506L13.178,5.506L13.178,-4.125L17.633,-4.125L17.633,-7.182L13.178,-7.182L13.178,-11.492L9.463,-11.492L9.463,-7.182L0.227,-7.182L0.227,-11.43L-3.154,-11.43L-3.154,-7.182L-8.533,-7.182L-8.533,-4.125L-3.154,-4.125L-3.154,2.053C-3.154,3.281 -3.307,4.436 -3.561,5.506L-8.869,5.506L-8.869,8.627L-4.484,8.627C-5.928,12.08 -9.066,14.533 -9.066,14.533L-6.545,16.998C-3.688,14.471 -1.662,11.307 -0.764,8.627L9.463,8.627L9.463,16.658L13.178,16.658L13.178,8.627L18.162,8.627L18.162,5.506Z" style="fill:rgb(35,31,32);fill-rule:nonzero;"/>
            </g>
            <g transform="matrix(2,0,0,2,0,5374.3)">
                <rect x="1840.92" y="115.056" width="23.582" height="3.43" style="fill:rgb(35,31,32);"/>
            </g>
            <g transform="matrix(2,0,0,2,0,5417.74)">
                <rect x="1842.02" y="104.192" width="21.572" height="3.434" style="fill:rgb(35,31,32);"/>
            </g>
            <g transform="matrix(2,0,0,2,0,5464.27)">
                <rect x="1839.98" y="92.535" width="25.787" height="3.486" style="fill:rgb(35,31,32);"/>
            </g>
            <g transform="matrix(-1.52191,1.29761,1.29761,1.52191,3853.33,5637.18)">
                <path d="M1.403,-12.206L4.64,-12.206C4.64,-12.206 5.622,-4.97 4.207,0.764L0.56,-0.304C0.56,-0.304 1.591,-5.655 1.403,-12.206" style="fill:rgb(35,31,32);fill-rule:nonzero;"/>
            </g>
            <g transform="matrix(2,0,0,2,3849.57,5652.37)">
                <path d="M0,-21.321L0,-24.51L-26.236,-24.51L-26.236,-21.321L-13.623,-21.321C-14.387,-19.471 -17.76,-12.557 -27.174,-7.643L-24.994,-4.518C-24.994,-4.518 -19.602,-7.598 -14.791,-13.104L-14.791,3.189L-11.094,3.189L-11.094,-18.178C-10.504,-19.176 -9.959,-20.223 -9.477,-21.321L0,-21.321Z" style="fill:rgb(35,31,32);fill-rule:nonzero;"/>
            </g>
            <g transform="matrix(2,0,0,2,3904.95,5643.48)">
                <path d="M0,-13.075L-2.549,-13.075C-2.807,3.329 -6.109,7.687 -6.109,7.687L-8.947,5.611C-8.947,5.611 -5.789,0.28 -5.799,-13.075L-8.264,-13.075L-8.264,-15.845L-5.805,-15.845L-5.805,-20.757L-2.549,-20.762L-2.549,-15.845L3.191,-15.845C3.191,-15.845 3.195,2.577 3.195,4.39C3.195,6.2 1.945,7.435 -0.016,7.435L-3.531,7.435L-3.531,4.357L-0.836,4.357C-0.367,4.357 0,4.103 0,3.435L0,-13.075Z" style="fill:rgb(35,31,32);fill-rule:nonzero;"/>
            </g>
            <g transform="matrix(2,0,0,2,0,5418.88)">
                <path d="M1940.08,105.017L1937.63,105.017L1937.63,102.822L1940.08,102.822L1940.08,105.017ZM1940.08,109.164L1937.63,109.164L1937.63,107.1L1940.08,107.1L1940.08,109.164ZM1932.44,107.099L1934.66,107.099L1934.66,109.163L1932.44,109.163L1932.44,107.099ZM1934.66,105.017L1932.44,105.017L1932.44,102.822L1934.66,102.822L1934.66,105.017ZM1943.55,94.113L1942.48,91.515C1939.06,92.406 1929.01,92.308 1929.01,92.308L1929.01,94.712C1929.01,94.712 1931.68,94.744 1934.66,94.689L1934.66,96.457L1929.01,96.457L1929.01,98.812L1934.66,98.812L1934.66,100.74L1929.57,100.74L1929.57,111.242L1934.66,111.242L1934.66,113.099L1929.57,113.099L1929.57,115.459L1934.66,115.459L1934.66,117.382L1929.01,117.382L1929.01,119.736L1942.96,119.736L1942.96,117.382L1937.63,117.382L1937.63,115.459L1942.96,115.459L1942.96,113.099L1937.63,113.099L1937.63,111.242L1942.96,111.242L1942.96,100.74L1937.63,100.74L1937.63,98.812L1943.24,98.812L1943.24,96.457L1937.63,96.457L1937.63,94.617C1937.63,94.617 1942.66,94.384 1943.55,94.113" style="fill:rgb(35,31,32);fill-rule:nonzero;"/>
            </g>
            <g transform="matrix(2,0,0,2,0,5418.33)">
                <path d="M1976.99,99.768L1969.26,99.768L1969.26,97.014L1976.99,97.014L1976.99,99.768ZM1964.22,102.678L1985.91,102.678L1985.91,99.768L1979.97,99.768L1979.97,97.014L1986.33,97.014L1986.33,94.106L1974.86,94.106L1974.86,91.332L1971.33,91.332L1971.33,94.106L1960.24,94.106L1960.24,97.014L1966.29,97.014L1966.29,99.768L1960.99,99.768C1961.67,113.602 1958.8,118.225 1958.8,118.225L1961.59,120.193C1961.59,120.193 1964.96,114.5 1964.22,102.678" style="fill:rgb(35,31,32);fill-rule:nonzero;"/>
            </g>
            <g transform="matrix(2,0,0,2,3937.72,5646.7)">
                <path d="M0,-5.152L5.506,-5.152L5.506,-2.818L-0.064,-2.818L-0.064,0.098L5.506,0.098L5.506,2.854L-4.279,2.854L-4.279,5.754L17.467,5.754L17.467,2.854L8.482,2.854L8.482,0.098L16.016,0.098L16.016,-2.818L8.482,-2.818L8.482,-5.152L16.365,-5.152L16.365,-8.062L8.482,-8.062L8.482,-10.906L5.506,-10.902L5.506,-8.062L0.4,-8.062L0.4,-10.494L-2.57,-10.488C-2.238,-4.779 -4.266,-1.693 -4.266,-1.693L-1.605,-0.588C-1.605,-0.588 -0.441,-2.728 0,-5.152" style="fill:rgb(35,31,32);fill-rule:nonzero;"/>
            </g>
            <g transform="matrix(2,0,0,2,3828.89,5699.06)">
                <path d="M0,-11.006L0,-8.902L-4.123,-8.902L-4.123,-6.361L0,-6.361L0,-4.41L-4.123,-4.41L-4.123,0L-6.6,0L-6.6,-11.006L0,-11.006Z" style="fill:rgb(35,31,32);fill-rule:nonzero;"/>
            </g>
            <g transform="matrix(2,0,0,2,3870.1,5694.92)">
                <path d="M0,-6.866L-1.514,-6.866L-1.514,0.066L0,0.066C1.061,0.066 1.531,-0.456 1.531,-1.97L1.531,-4.864C1.531,-6.345 1.061,-6.866 0,-6.866M0,-8.936C2.539,-8.936 4.023,-7.389 4.023,-4.999L4.023,-1.903C4.023,0.505 2.539,2.07 0,2.07L-3.99,2.07L-3.99,-8.936L0,-8.936Z" style="fill:rgb(35,31,32);fill-rule:nonzero;"/>
            </g>
            <g transform="matrix(2,0,0,2,3896.95,5691.77)">
                <path d="M0,-3.717C0,-5.063 -0.455,-5.619 -1.516,-5.619C-2.574,-5.619 -3.049,-5.08 -3.049,-3.717L-3.049,-0.002C-3.049,1.394 -2.592,1.951 -1.516,1.951C-0.471,1.951 0,1.394 0,-0.02L0,-3.717ZM2.488,-3.717L2.488,-0.02C2.488,2.371 1.061,3.92 -1.516,3.92C-4.107,3.92 -5.521,2.371 -5.521,-0.002L-5.521,-3.717C-5.521,-6.106 -4.107,-7.637 -1.516,-7.637C1.061,-7.637 2.488,-6.106 2.488,-3.717" style="fill:rgb(35,31,32);fill-rule:nonzero;"/>
            </g>
            <g transform="matrix(2,0,0,2,3958.64,5699.06)">
                <path d="M0,-11.006L3.686,-4.947L3.721,-4.947L3.721,-11.006L5.908,-11.006L5.908,0L4.191,0L0.387,-6.313L0.354,-6.313L0.354,0L-1.834,0L-1.834,-11.006L0,-11.006Z" style="fill:rgb(35,31,32);fill-rule:nonzero;"/>
            </g>
            <g transform="matrix(2,0,0,2,3936.56,5685.16)">
                <path d="M0,2.892L1.146,-1.786L1.18,-1.786L2.324,2.892L0,2.892ZM2.809,-4.057L-0.434,-4.057L-3.482,6.949L-0.99,6.949L-0.445,4.71L2.768,4.71L3.316,6.949L5.859,6.949L2.809,-4.057Z" style="fill:rgb(35,31,32);fill-rule:nonzero;"/>
            </g>
            <g transform="matrix(2,0,0,2,3923.46,5694.79)">
                <path d="M0,-6.74C-0.701,-8.283 -1.801,-9.148 -3.664,-9.148C-5.457,-9.148 -6.994,-7.906 -6.994,-6.273C-6.994,-4.775 -6.316,-3.961 -4.857,-3.064C-4.549,-2.871 -3.518,-2.179 -3.244,-2.013C-2.553,-1.594 -2.301,-1.33 -2.301,-0.828C-2.301,-0.301 -2.826,0.27 -3.646,0.27C-4.428,0.27 -5.021,-0.211 -5.414,-1.238L-7.293,-0.273C-6.592,1.635 -5.408,2.408 -3.572,2.408C-1.449,2.408 0.051,0.901 0.051,-0.885C0.051,-2.136 -0.666,-3.033 -1.51,-3.558C-1.932,-3.82 -2.416,-4.101 -2.957,-4.449C-4.238,-5.267 -4.682,-5.547 -4.682,-6.197C-4.682,-6.847 -4.184,-7.213 -3.344,-7.174C-2.627,-7.138 -1.965,-6.42 -1.734,-5.869L0,-6.74Z" style="fill:rgb(35,31,32);fill-rule:nonzero;"/>
            </g>
            <g transform="matrix(2,0,0,2,3853.34,5699.61)">
                <path d="M0,-11.281L0,-3.888C0,-1.48 -1.463,0 -3.99,0C-6.547,0 -8.01,-1.431 -8.01,-3.769L-8.01,-11.281L-5.521,-11.281L-5.521,-3.769C-5.521,-2.642 -4.914,-2.172 -3.99,-2.172C-3.012,-2.172 -2.475,-2.66 -2.475,-3.769L-2.475,-11.281L0,-11.281Z" style="fill:rgb(35,31,32);fill-rule:nonzero;"/>
            </g>
            <g transform="matrix(2,0,0,2,3702.58,5699.06)">
                <path d="M0,-11.006L0,0L-2.258,0L-2.258,-6.313L-2.291,-6.313L-4.646,-1.651L-5.74,-1.651L-8.08,-6.313L-8.113,-6.313L-8.113,0L-10.367,0L-10.367,-11.006L-8.027,-11.006L-5.201,-5.123L-5.168,-5.123L-2.342,-11.006L0,-11.006Z" style="fill:rgb(35,31,32);fill-rule:nonzero;"/>
            </g>
            <g transform="matrix(2,0,0,2,3738.09,5699.06)">
                <path d="M0,-11.006L0,-8.887L-2.457,-8.887L-2.457,0L-4.949,0L-4.949,-8.887L-7.404,-8.887L-7.404,-11.006L0,-11.006Z" style="fill:rgb(35,31,32);fill-rule:nonzero;"/>
            </g>
            <g transform="matrix(-2,0,0,2,7584.94,5534.73)">
                <rect x="1894.99" y="71.16" width="2.488" height="11.006" style="fill:rgb(35,31,32);"/>
            </g>
            <g transform="matrix(2,0,0,2,3757.76,5694.79)">
                <path d="M0,-6.74C-0.699,-8.283 -1.799,-9.148 -3.66,-9.148C-5.455,-9.148 -6.992,-7.906 -6.992,-6.273C-6.992,-4.775 -6.314,-3.961 -4.855,-3.064C-4.545,-2.871 -3.518,-2.179 -3.242,-2.013C-2.551,-1.594 -2.301,-1.33 -2.301,-0.828C-2.301,-0.301 -2.824,0.27 -3.643,0.27C-4.426,0.27 -5.018,-0.211 -5.41,-1.238L-7.291,-0.273C-6.59,1.635 -5.406,2.408 -3.572,2.408C-1.443,2.408 0.053,0.901 0.053,-0.885C0.053,-2.136 -0.664,-3.033 -1.508,-3.558C-1.928,-3.82 -2.414,-4.101 -2.955,-4.449C-4.236,-5.267 -4.678,-5.547 -4.678,-6.197C-4.678,-6.847 -4.182,-7.213 -3.342,-7.174C-2.625,-7.138 -1.961,-6.42 -1.734,-5.869L0,-6.74Z" style="fill:rgb(35,31,32);fill-rule:nonzero;"/>
            </g>
            <g transform="matrix(2,0,0,2,3781.16,5699.61)">
                <path d="M0,-11.281L0,-3.888C0,-1.48 -1.463,0 -3.99,0C-6.545,0 -8.01,-1.431 -8.01,-3.769L-8.01,-11.281L-5.52,-11.281L-5.52,-3.769C-5.52,-2.642 -4.912,-2.172 -3.99,-2.172C-3.012,-2.172 -2.473,-2.66 -2.473,-3.769L-2.473,-11.281L0,-11.281Z" style="fill:rgb(35,31,32);fill-rule:nonzero;"/>
            </g>
            <g transform="matrix(-2,0,0,2,7428.12,5534.73)">
                <rect x="1855.78" y="71.16" width="2.49" height="11.006" style="fill:rgb(35,31,32);"/>
            </g>
            <g transform="matrix(2,0,0,2,3587.42,5697.47)">
                <path d="M0,-32.438C-0.771,-32.137 -1.455,-31.471 -2.066,-30.932C-2.572,-30.485 -3.1,-30.02 -3.549,-29.514C-5.1,-27.758 -6.266,-25.686 -7.35,-23.624C-7.904,-22.571 -8.438,-21.528 -8.863,-20.417C-9.238,-19.43 -9.639,-18.444 -9.787,-17.393C-9.926,-16.42 -10.156,-15.473 -10.191,-14.489C-10.23,-13.424 -10.154,-12.368 -10.049,-11.313C-9.85,-9.34 -9.1,-7.422 -8.377,-5.59C-8.197,-5.126 -8.043,-4.674 -7.822,-4.235C-7.658,-3.907 -7.437,-3.59 -7.234,-3.28C-6.918,-2.807 -6.604,-2.317 -6.242,-1.874C-5.996,-1.573 -5.693,-1.215 -5.309,-1.077C-4.6,-0.833 -3.875,-0.643 -3.15,-0.448C-0.99,0.134 1.244,0.529 3.451,0.66C4.807,0.74 6.187,0.71 7.561,0.636C8.707,0.58 9.846,0.498 10.971,0.347C13.313,0.041 15.527,-0.657 17.641,-1.7C18.768,-2.258 19.867,-2.895 20.873,-3.663C21.832,-4.395 22.594,-5.258 23.311,-6.227C24.395,-7.688 25.281,-9.297 25.969,-10.981C26.201,-11.54 26.436,-12.079 26.617,-12.661C26.75,-13.102 26.822,-13.614 26.668,-13.952C26.357,-14.649 25.836,-15.276 25.377,-15.881C24.283,-17.323 23.1,-18.692 21.979,-20.108C20.975,-21.368 20.02,-22.608 18.783,-23.631C17.986,-24.288 17.207,-24.975 16.502,-25.731C15.809,-26.479 15.229,-27.344 14.578,-28.135C12.893,-30.192 10.775,-31.987 8.129,-32.606C6.775,-32.928 5.346,-33.178 3.951,-33.092C3.285,-33.049 2.568,-32.979 1.869,-32.877C1.215,-32.782 0.578,-32.667 0,-32.438" style="fill:rgb(7,78,162);fill-rule:nonzero;"/>
            </g>
            <g transform="matrix(2,0,0,2,3611.85,5619.72)">
                <path d="M0,-19.166C-0.996,-19.236 -2.193,-18.418 -2.963,-17.779C-3.594,-17.26 -4.15,-16.664 -4.697,-16.066C-5.404,-15.295 -6.102,-14.541 -6.695,-13.723C-7.316,-12.854 -7.818,-11.904 -8.281,-10.881C-8.68,-10 -9.135,-9.145 -9.379,-8.201C-9.623,-7.246 -9.775,-6.293 -9.742,-5.303C-9.703,-4.279 -9.568,-3.219 -9.346,-2.217C-9.08,-1.092 -8.686,-0.492 -7.521,-0.213C-6.35,0.07 -5.266,-0.354 -4.164,-0.705C-3.594,-0.883 -3.021,-1.076 -2.455,-1.184C-2.047,-1.264 -1.645,-1.277 -1.211,-1.332C0.061,-1.5 1.24,-1.9 2.387,-2.463C3.398,-2.957 4.457,-3.529 5.164,-4.428C5.65,-5.045 5.988,-5.703 6.215,-6.387C6.49,-7.246 6.523,-8.145 6.469,-9.051C6.402,-10.105 6.186,-11.174 5.803,-12.201C5.256,-13.635 4.471,-14.992 3.645,-16.139C3.178,-16.781 2.648,-17.324 2.074,-17.869C1.514,-18.408 0.67,-19.166 0,-19.166" style="fill:rgb(237,28,36);fill-rule:nonzero;"/>
            </g>
            <g transform="matrix(2,0,0,2,3647.06,5617.74)">
                <path d="M0,32.324C-1.195,33.5 -2.441,34.562 -3.758,35.595C-4.656,36.297 -5.566,36.99 -6.424,37.744C-6.875,38.14 -7.354,38.586 -7.832,38.959C-8.037,39.121 -8.246,39.234 -8.451,39.4C-9.086,39.912 -9.652,40.189 -10.295,40.545C-10.758,40.799 -11.234,41.072 -11.695,41.295C-12.256,41.56 -12.814,41.844 -13.381,42.049C-14.006,42.277 -14.643,42.447 -15.291,42.652C-16.246,42.865 -17.184,43.131 -18.133,43.365C-18.752,43.513 -19.373,43.662 -20.006,43.734C-20.773,43.82 -21.535,43.928 -22.301,44.039C-23.135,44.164 -23.969,44.291 -24.811,44.281C-25.584,44.342 -26.355,44.226 -27.115,44.099C-27.52,44.031 -27.908,43.894 -28.309,43.799C-28.789,43.683 -29.285,43.625 -29.762,43.49C-30.543,43.265 -31.273,42.84 -31.99,42.453C-32.568,42.148 -33.158,41.861 -33.66,41.429C-34.158,41.097 -34.678,40.765 -35.105,40.349C-35.406,40.062 -35.633,39.709 -35.898,39.39C-36.152,39.08 -36.41,38.824 -36.602,38.467C-36.801,38.094 -36.986,37.627 -37.172,37.232C-37.299,36.976 -37.436,36.76 -37.535,36.506C-37.605,36.314 -37.703,36.047 -37.75,35.847C-37.793,35.679 -37.787,35.582 -37.828,35.414C-37.855,35.256 -37.957,35.131 -38.002,35.004C-38.053,34.875 -38.053,34.742 -38.039,34.57C-38.393,33.113 -38.357,31.613 -38.303,30.129C-38.268,29.136 -38.229,28.131 -38.137,27.142C-38.098,26.676 -38.041,26.191 -37.895,25.742C-37.703,25.158 -37.494,24.578 -37.285,24.002C-37.043,23.326 -36.828,22.625 -36.586,21.961C-36.439,21.56 -36.258,21.191 -36.068,20.808C-35.604,19.888 -35.09,18.99 -34.656,18.06C-34.285,17.269 -33.893,16.486 -33.424,15.748C-32.85,14.84 -32.234,13.945 -31.59,13.082C-31.008,12.301 -30.506,11.76 -30.186,11.359C-29.67,10.72 -29.156,10.07 -28.621,9.445C-28.15,8.976 -27.684,8.447 -27.271,7.922C-26.928,7.486 -26.561,7.148 -26.176,6.763C-25.867,6.455 -25.537,6.103 -25.234,5.781C-24.494,5.01 -23.77,4.22 -22.996,3.484C-22.402,2.922 -21.807,2.361 -21.301,1.72C-21.105,1.414 -20.902,1.455 -20.715,1.74C-19.652,3.041 -18.635,4.371 -17.652,5.742C-17.104,6.508 -16.539,7.283 -16.043,8.076C-15.75,8.57 -15.443,9.064 -15.158,9.564C-14.867,10.072 -14.6,10.58 -14.305,11.088C-13.773,12.002 -13.199,12.908 -12.6,13.787C-12.236,14.32 -11.877,14.863 -11.543,15.412C-11.326,15.765 -11.115,16.135 -10.871,16.47C-10.223,17.363 -9.521,18.213 -8.887,19.115C-8.568,19.754 -8.135,20.324 -7.686,20.896C-7.258,21.437 -6.82,21.982 -6.402,22.502C-5.816,23.224 -5.184,23.898 -4.639,24.656C-4.205,25.258 -3.852,25.91 -3.424,26.519C-2.99,27.328 -2.545,28.131 -2.066,28.918C-1.828,29.314 -1.586,29.722 -1.32,30.099C-1.162,30.316 -1,30.513 -0.828,30.719C-0.531,31.082 -0.203,31.459 0.018,31.914C0.143,32.045 0.143,32.213 0,32.324M-21.885,-2.365L-22.699,-3.59C-23.01,-4.291 -23.256,-5.018 -23.502,-5.746C-23.607,-6.213 -23.635,-6.686 -23.611,-7.162C-23.561,-7.621 -23.434,-8.037 -23.271,-8.465C-23.186,-8.696 -23.145,-8.947 -23.053,-9.156C-22.969,-9.344 -22.84,-9.498 -22.699,-9.676C-22.432,-9.938 -22.229,-10.24 -21.936,-10.477C-21.301,-10.99 -20.637,-11.604 -19.893,-11.922C-19.652,-12.024 -19.334,-12.094 -19.051,-12.155C-18.824,-12.199 -18.652,-12.266 -18.418,-12.276C-18.125,-12.283 -17.834,-12.239 -17.555,-12.174C-17.049,-12.049 -16.59,-11.809 -16.273,-11.377C-15.316,-10.34 -15.172,-8.936 -15.725,-7.649C-16.195,-6.203 -17.092,-4.906 -18.031,-3.737C-18.635,-2.979 -19.209,-2.356 -19.859,-1.645C-19.932,-1.565 -20.131,-1.369 -20.242,-1.233C-20.418,-1.016 -20.584,-0.76 -20.756,-0.709C-20.893,-0.668 -20.996,-0.76 -21.094,-0.975L-21.885,-2.365ZM7.34,38.929C6.99,38.502 6.6,38.08 6.24,37.629C5.91,37.232 5.545,36.847 5.189,36.457C4.984,36.232 4.727,36.037 4.566,35.754C4.375,35.422 4.105,35.232 3.83,34.976C3.541,34.711 3.574,34.465 3.129,33.963C2.773,33.564 2.434,33.129 2.09,32.711C1.973,32.576 1.857,32.375 2.049,32.238C2.383,31.879 2.732,31.504 3.045,31.125C3.383,30.711 3.672,30.261 4.016,29.853C4.326,29.494 4.664,29.156 4.965,28.789C5.264,28.433 5.48,28.021 5.768,27.658C5.963,27.422 6.16,27.211 6.35,26.969C6.479,26.804 6.6,26.609 6.725,26.447C7.031,26.031 7.73,25.207 7.561,24.738C7.535,24.689 7.398,24.529 7.281,24.422C7.242,24.387 7.189,24.261 7.115,24.258C7.033,24.25 6.869,24.338 6.799,24.336C6.539,24.318 5.906,25.332 5.561,25.605C5.297,26.015 4.984,26.33 4.719,26.715C4.523,27.002 4.348,27.312 4.156,27.601C3.732,28.252 3.164,28.76 2.648,29.336C2.271,29.756 1.922,30.263 1.564,30.705C1.238,31.111 1.08,31.17 0.818,30.762C0.051,29.803 -0.633,28.789 -1.242,27.742C-1.975,26.482 -2.652,25.183 -3.51,24C-3.979,23.41 -4.473,22.795 -4.951,22.22C-5.301,21.808 -5.635,21.381 -5.973,20.976C-6.168,20.734 -6.416,20.564 -6.59,20.273C-6.711,20.072 -6.875,19.888 -7,19.691C-8.031,18.011 -8.135,18.013 -8.699,17.174C-8.941,16.812 -9.137,16.422 -9.412,16.084C-9.709,15.672 -10.035,15.273 -10.336,14.857C-10.732,14.304 -11.053,13.762 -11.432,13.193C-11.961,12.388 -12.537,11.554 -13.033,10.72C-13.141,10.535 -13.232,10.383 -13.334,10.197C-13.592,9.732 -13.854,9.275 -14.135,8.82C-14.389,8.418 -14.67,8.017 -14.92,7.609C-15.066,7.363 -15.186,7.117 -15.316,6.865C-15.539,6.418 -15.855,6.074 -16.156,5.67C-16.395,5.344 -16.617,4.957 -16.828,4.613C-17.15,4.162 -17.475,3.719 -17.816,3.277C-18.016,3.021 -18.252,2.806 -18.449,2.562C-18.639,2.32 -18.82,2.06 -19.01,1.832C-19.318,1.457 -19.627,1.072 -19.943,0.707C-20.045,0.594 -20.102,0.482 -20.074,0.379C-20.01,0.148 -19.586,-0.098 -19.406,-0.285C-18.918,-0.813 -18.441,-1.406 -17.984,-1.961C-17.391,-2.692 -16.809,-3.44 -16.273,-4.217C-15.699,-4.99 -15.219,-5.864 -14.867,-6.758C-14.477,-7.748 -14.238,-8.36 -14.219,-9.201C-14.207,-9.569 -14.182,-10.047 -14.311,-10.496C-14.852,-12.342 -16.582,-13.299 -18.119,-13.303C-18.969,-13.305 -19.816,-13.08 -20.605,-12.787C-21.365,-12.328 -21.531,-12.182 -22.207,-11.606C-22.189,-11.614 -23.061,-10.912 -23.049,-10.92C-23.234,-10.768 -23.326,-10.656 -23.416,-10.565C-23.512,-10.461 -23.607,-10.369 -23.768,-10.149C-24.07,-9.729 -24.262,-9.25 -24.432,-8.762C-24.645,-8.129 -24.871,-7.535 -24.922,-6.869C-25.002,-5.436 -24.322,-4.018 -23.703,-2.77C-23.318,-2.221 -22.932,-1.631 -22.586,-1.055C-22.32,-0.617 -22.111,-0.219 -21.875,0.232C-21.789,0.394 -21.936,0.58 -22.09,0.762C-22.301,1.012 -22.568,1.254 -22.719,1.418C-23.186,1.931 -23.658,2.488 -24.143,2.98C-24.484,3.326 -24.857,3.646 -25.205,3.984C-25.639,4.404 -26.053,4.842 -26.469,5.283C-28.4,7.107 -29.986,9.256 -31.734,11.246C-32.209,11.849 -32.674,12.51 -33.117,13.142C-33.59,13.82 -34.061,14.504 -34.496,15.195C-34.934,15.887 -35.357,16.578 -35.762,17.291C-36.293,18.488 -36.908,19.627 -37.518,20.781C-37.682,21.303 -37.895,21.818 -38.082,22.34C-38.551,23.666 -39.074,24.914 -39.295,26.262C-39.457,26.871 -39.467,27.422 -39.494,28.015C-39.5,28.262 -39.521,28.709 -39.561,28.951C-39.602,29.17 -39.662,29.176 -39.672,29.392C-39.689,29.621 -39.652,29.849 -39.639,30.088C-39.746,30.584 -39.67,31.129 -39.695,31.631C-39.707,31.879 -39.773,32.045 -39.783,32.277C-39.785,32.513 -39.732,32.873 -39.703,33.121C-39.656,33.367 -39.639,33.582 -39.578,33.822C-39.494,34.152 -39.541,34.445 -39.508,34.781C-39.482,35 -39.398,34.871 -39.318,35.472C-39.271,35.818 -39.16,36.203 -39.053,36.535C-38.816,37.256 -38.518,37.959 -38.168,38.656C-37.945,39.092 -37.709,39.545 -37.428,39.931C-36.582,41.117 -35.473,42.135 -34.27,42.959C-33.572,43.439 -32.766,43.728 -32.002,44.086C-31.375,44.379 -30.701,44.531 -30.076,44.834C-29.557,44.947 -29.037,45.045 -28.527,45.146C-28.186,45.217 -27.848,45.287 -27.502,45.357C-27.059,45.447 -26.746,45.429 -26.369,45.457C-26.057,45.482 -25.746,45.527 -25.436,45.547C-23.951,45.629 -22.42,45.422 -20.959,45.234C-20.637,45.183 -20.275,45.078 -19.957,45.021C-19.377,44.92 -18.939,44.918 -18.273,44.756C-17.324,44.523 -16.355,44.299 -15.406,44.056C-14.986,43.949 -14.57,43.797 -14.162,43.672C-13.822,43.57 -13.49,43.504 -13.162,43.385C-12.236,43.06 -11.357,42.662 -10.494,42.16C-10.012,41.947 -9.568,41.658 -9.135,41.361C-8.506,40.928 -7.809,40.613 -7.193,40.17C-6.027,39.332 -4.955,38.402 -3.875,37.455C-2.34,36.101 -0.693,34.92 0.791,33.5C0.916,33.234 1.09,33.515 1.182,33.644C1.406,33.967 1.639,34.33 1.881,34.637C2.094,34.908 2.633,35.525 2.848,35.789C3.197,36.226 3.248,36.156 3.361,36.269C3.48,36.39 3.574,36.556 3.709,36.629C3.863,36.711 3.951,36.824 4.055,36.963C4.318,37.33 4.676,37.726 5,38.123C5.133,38.281 5.26,38.459 5.375,38.629C5.531,38.869 5.697,38.941 5.814,39.105C5.998,39.357 5.906,39.443 6.211,39.879C6.367,40.107 6.594,40.076 6.945,39.945C7.064,39.898 7.16,39.918 7.244,39.879C7.4,39.808 7.572,39.336 7.34,38.929" style="fill:rgb(35,31,32);fill-rule:nonzero;"/>
            </g>
            <g transform="matrix(2,0,0,2,3755.65,5624.87)">
                <path d="M0,5.506C0.363,3.178 0.227,1.697 0.227,1.322L0.227,-4.125L9.463,-4.125L9.463,5.506L0,5.506ZM18.162,5.506L13.178,5.506L13.178,-4.125L17.635,-4.125L17.635,-7.182L13.178,-7.182L13.178,-11.492L9.463,-11.492L9.463,-7.182L0.227,-7.182L0.227,-11.43L-3.154,-11.43L-3.154,-7.182L-8.533,-7.182L-8.533,-4.125L-3.154,-4.125L-3.154,2.053C-3.154,3.281 -3.307,4.436 -3.559,5.506L-8.869,5.506L-8.869,8.627L-4.484,8.627C-5.926,12.08 -9.066,14.533 -9.066,14.533L-6.543,16.998C-3.688,14.471 -1.662,11.307 -0.762,8.627L9.463,8.627L9.463,16.658L13.178,16.658L13.178,8.627L18.162,8.627L18.162,5.506Z" style="fill:rgb(35,31,32);fill-rule:nonzero;"/>
            </g>
            <g transform="matrix(2,0,0,2,0,5374.3)">
                <rect x="1840.92" y="115.056" width="23.582" height="3.43" style="fill:rgb(35,31,32);"/>
            </g>
            <g transform="matrix(2,0,0,2,0,5417.74)">
                <rect x="1842.02" y="104.192" width="21.572" height="3.434" style="fill:rgb(35,31,32);"/>
            </g>
            <g transform="matrix(2,0,0,2,0,5464.27)">
                <rect x="1839.98" y="92.535" width="25.785" height="3.486" style="fill:rgb(35,31,32);"/>
            </g>
            <g transform="matrix(-1.52139,1.29822,1.29822,1.52139,3853.33,5637.17)">
                <path d="M1.402,-12.206L4.637,-12.206C4.637,-12.206 5.624,-4.971 4.212,0.763L0.564,-0.304C0.564,-0.304 1.593,-5.655 1.402,-12.206" style="fill:rgb(35,31,32);fill-rule:nonzero;"/>
            </g>
            <g transform="matrix(2,0,0,2,3849.57,5652.37)">
                <path d="M0,-21.321L0,-24.51L-26.234,-24.51L-26.234,-21.321L-13.623,-21.321C-14.385,-19.471 -17.76,-12.557 -27.174,-7.643L-24.994,-4.518C-24.994,-4.518 -19.6,-7.598 -14.791,-13.104L-14.791,3.189L-11.094,3.189L-11.094,-18.178C-10.502,-19.176 -9.959,-20.223 -9.477,-21.321L0,-21.321Z" style="fill:rgb(35,31,32);fill-rule:nonzero;"/>
            </g>
            <g transform="matrix(2,0,0,2,3904.95,5643.48)">
                <path d="M0,-13.075L-2.547,-13.075C-2.807,3.329 -6.109,7.687 -6.109,7.687L-8.945,5.611C-8.945,5.611 -5.789,0.28 -5.797,-13.075L-8.262,-13.075L-8.262,-15.845L-5.805,-15.845L-5.805,-20.757L-2.547,-20.762L-2.547,-15.845L3.191,-15.845C3.191,-15.845 3.195,2.577 3.195,4.39C3.195,6.2 1.945,7.435 -0.016,7.435L-3.529,7.435L-3.529,4.357L-0.836,4.357C-0.367,4.357 0,4.103 0,3.435L0,-13.075Z" style="fill:rgb(35,31,32);fill-rule:nonzero;"/>
            </g>
            <g transform="matrix(2,0,0,2,0,5418.88)">
                <path d="M1940.08,105.017L1937.63,105.017L1937.63,102.822L1940.08,102.822L1940.08,105.017ZM1940.08,109.164L1937.63,109.164L1937.63,107.1L1940.08,107.1L1940.08,109.164ZM1932.44,107.099L1934.66,107.099L1934.66,109.163L1932.44,109.163L1932.44,107.099ZM1934.66,105.017L1932.44,105.017L1932.44,102.822L1934.66,102.822L1934.66,105.017ZM1943.55,94.113L1942.48,91.515C1939.06,92.406 1929.02,92.308 1929.02,92.308L1929.02,94.712C1929.02,94.712 1931.68,94.744 1934.66,94.689L1934.66,96.457L1929.02,96.457L1929.02,98.812L1934.66,98.812L1934.66,100.74L1929.57,100.74L1929.57,111.242L1934.66,111.242L1934.66,113.099L1929.57,113.099L1929.57,115.459L1934.66,115.459L1934.66,117.382L1929.02,117.382L1929.02,119.736L1942.96,119.736L1942.96,117.382L1937.63,117.382L1937.63,115.459L1942.96,115.459L1942.96,113.099L1937.63,113.099L1937.63,111.242L1942.96,111.242L1942.96,100.74L1937.63,100.74L1937.63,98.812L1943.24,98.812L1943.24,96.457L1937.63,96.457L1937.63,94.617C1937.63,94.617 1942.66,94.384 1943.55,94.113" style="fill:rgb(35,31,32);fill-rule:nonzero;"/>
            </g>
            <g transform="matrix(2,0,0,2,0,5418.33)">
                <path d="M1976.99,99.768L1969.26,99.768L1969.26,97.014L1976.99,97.014L1976.99,99.768ZM1964.22,102.678L1985.91,102.678L1985.91,99.768L1979.97,99.768L1979.97,97.014L1986.33,97.014L1986.33,94.106L1974.86,94.106L1974.86,91.332L1971.33,91.332L1971.33,94.106L1960.24,94.106L1960.24,97.014L1966.29,97.014L1966.29,99.768L1960.99,99.768C1961.67,113.602 1958.8,118.225 1958.8,118.225L1961.59,120.193C1961.59,120.193 1964.96,114.5 1964.22,102.678" style="fill:rgb(35,31,32);fill-rule:nonzero;"/>
            </g>
            <g transform="matrix(2,0,0,2,3937.72,5646.7)">
                <path d="M0,-5.152L5.506,-5.152L5.506,-2.818L-0.062,-2.818L-0.062,0.098L5.506,0.098L5.506,2.854L-4.277,2.854L-4.277,5.754L17.469,5.754L17.469,2.854L8.484,2.854L8.484,0.098L16.018,0.098L16.018,-2.818L8.484,-2.818L8.484,-5.152L16.365,-5.152L16.365,-8.062L8.484,-8.062L8.484,-10.906L5.506,-10.902L5.506,-8.062L0.4,-8.062L0.4,-10.494L-2.57,-10.488C-2.238,-4.779 -4.264,-1.693 -4.264,-1.693L-1.605,-0.588C-1.605,-0.588 -0.441,-2.728 0,-5.152" style="fill:rgb(35,31,32);fill-rule:nonzero;"/>
            </g>
            <g transform="matrix(2,0,0,2,3828.89,5699.06)">
                <path d="M0,-11.006L0,-8.902L-4.123,-8.902L-4.123,-6.361L0,-6.361L0,-4.41L-4.123,-4.41L-4.123,0L-6.598,0L-6.598,-11.006L0,-11.006Z" style="fill:rgb(35,31,32);fill-rule:nonzero;"/>
            </g>
            <g transform="matrix(2,0,0,2,3870.1,5694.92)">
                <path d="M0,-6.866L-1.514,-6.866L-1.514,0.066L0,0.066C1.061,0.066 1.533,-0.456 1.533,-1.97L1.533,-4.864C1.533,-6.345 1.061,-6.866 0,-6.866M0,-8.936C2.541,-8.936 4.023,-7.389 4.023,-4.999L4.023,-1.903C4.023,0.505 2.541,2.07 0,2.07L-3.988,2.07L-3.988,-8.936L0,-8.936Z" style="fill:rgb(35,31,32);fill-rule:nonzero;"/>
            </g>
            <g transform="matrix(2,0,0,2,3896.95,5691.77)">
                <path d="M0,-3.717C0,-5.063 -0.455,-5.619 -1.516,-5.619C-2.574,-5.619 -3.047,-5.08 -3.047,-3.717L-3.047,-0.002C-3.047,1.394 -2.592,1.951 -1.516,1.951C-0.471,1.951 0,1.394 0,-0.02L0,-3.717ZM2.49,-3.717L2.49,-0.02C2.49,2.371 1.061,3.92 -1.516,3.92C-4.107,3.92 -5.521,2.371 -5.521,-0.002L-5.521,-3.717C-5.521,-6.106 -4.107,-7.637 -1.516,-7.637C1.061,-7.637 2.49,-6.106 2.49,-3.717" style="fill:rgb(35,31,32);fill-rule:nonzero;"/>
            </g>
            <g transform="matrix(2,0,0,2,3958.64,5699.06)">
                <path d="M0,-11.006L3.686,-4.947L3.721,-4.947L3.721,-11.006L5.908,-11.006L5.908,0L4.191,0L0.387,-6.313L0.354,-6.313L0.354,0L-1.834,0L-1.834,-11.006L0,-11.006Z" style="fill:rgb(35,31,32);fill-rule:nonzero;"/>
            </g>
            <g transform="matrix(2,0,0,2,3936.56,5685.16)">
                <path d="M0,2.892L1.145,-1.786L1.178,-1.786L2.322,2.892L0,2.892ZM2.807,-4.057L-0.434,-4.057L-3.484,6.949L-0.992,6.949L-0.445,4.71L2.768,4.71L3.316,6.949L5.857,6.949L2.807,-4.057Z" style="fill:rgb(35,31,32);fill-rule:nonzero;"/>
            </g>
            <g transform="matrix(2,0,0,2,3923.46,5694.79)">
                <path d="M0,-6.74C-0.699,-8.283 -1.799,-9.148 -3.662,-9.148C-5.457,-9.148 -6.994,-7.906 -6.994,-6.273C-6.994,-4.775 -6.314,-3.961 -4.857,-3.064C-4.547,-2.871 -3.518,-2.179 -3.244,-2.013C-2.553,-1.594 -2.301,-1.33 -2.301,-0.828C-2.301,-0.301 -2.826,0.27 -3.645,0.27C-4.428,0.27 -5.02,-0.211 -5.412,-1.238L-7.293,-0.273C-6.592,1.635 -5.408,2.408 -3.572,2.408C-1.447,2.408 0.053,0.901 0.053,-0.885C0.053,-2.136 -0.664,-3.033 -1.51,-3.558C-1.93,-3.82 -2.414,-4.101 -2.957,-4.449C-4.238,-5.267 -4.68,-5.547 -4.68,-6.197C-4.68,-6.847 -4.182,-7.213 -3.344,-7.174C-2.627,-7.138 -1.963,-6.42 -1.734,-5.869L0,-6.74Z" style="fill:rgb(35,31,32);fill-rule:nonzero;"/>
            </g>
            <g transform="matrix(2,0,0,2,3853.34,5699.61)">
                <path d="M0,-11.281L0,-3.888C0,-1.48 -1.463,0 -3.988,0C-6.545,0 -8.01,-1.431 -8.01,-3.769L-8.01,-11.281L-5.52,-11.281L-5.52,-3.769C-5.52,-2.642 -4.914,-2.172 -3.988,-2.172C-3.012,-2.172 -2.473,-2.66 -2.473,-3.769L-2.473,-11.281L0,-11.281Z" style="fill:rgb(35,31,32);fill-rule:nonzero;"/>
            </g>
            <g transform="matrix(2,0,0,2,3702.57,5699.06)">
                <path d="M0,-11.006L0,0L-2.256,0L-2.256,-6.313L-2.289,-6.313L-4.646,-1.651L-5.738,-1.651L-8.08,-6.313L-8.113,-6.313L-8.113,0L-10.367,0L-10.367,-11.006L-8.027,-11.006L-5.201,-5.123L-5.168,-5.123L-2.34,-11.006L0,-11.006Z" style="fill:rgb(35,31,32);fill-rule:nonzero;"/>
            </g>
            <g transform="matrix(2,0,0,2,3738.09,5699.06)">
                <path d="M0,-11.006L0,-8.887L-2.457,-8.887L-2.457,0L-4.947,0L-4.947,-8.887L-7.404,-8.887L-7.404,-11.006L0,-11.006Z" style="fill:rgb(35,31,32);fill-rule:nonzero;"/>
            </g>
            <g transform="matrix(-2,0,0,2,7584.94,5534.73)">
                <rect x="1894.99" y="71.16" width="2.49" height="11.006" style="fill:rgb(35,31,32);"/>
            </g>
            <g transform="matrix(2,0,0,2,3757.76,5694.79)">
                <path d="M0,-6.74C-0.699,-8.283 -1.799,-9.148 -3.662,-9.148C-5.457,-9.148 -6.994,-7.906 -6.994,-6.273C-6.994,-4.775 -6.314,-3.961 -4.857,-3.064C-4.547,-2.871 -3.518,-2.179 -3.244,-2.013C-2.553,-1.594 -2.301,-1.33 -2.301,-0.828C-2.301,-0.301 -2.826,0.27 -3.645,0.27C-4.428,0.27 -5.02,-0.211 -5.412,-1.238L-7.293,-0.273C-6.592,1.635 -5.408,2.408 -3.572,2.408C-1.445,2.408 0.053,0.901 0.053,-0.885C0.053,-2.136 -0.664,-3.033 -1.51,-3.558C-1.93,-3.82 -2.414,-4.101 -2.957,-4.449C-4.238,-5.267 -4.68,-5.547 -4.68,-6.197C-4.68,-6.847 -4.182,-7.213 -3.344,-7.174C-2.627,-7.138 -1.963,-6.42 -1.734,-5.869L0,-6.74Z" style="fill:rgb(35,31,32);fill-rule:nonzero;"/>
            </g>
            <g transform="matrix(2,0,0,2,3781.16,5699.61)">
                <path d="M0,-11.281L0,-3.888C0,-1.48 -1.465,0 -3.99,0C-6.547,0 -8.012,-1.431 -8.012,-3.769L-8.012,-11.281L-5.521,-11.281L-5.521,-3.769C-5.521,-2.642 -4.914,-2.172 -3.99,-2.172C-3.014,-2.172 -2.475,-2.66 -2.475,-3.769L-2.475,-11.281L0,-11.281Z" style="fill:rgb(35,31,32);fill-rule:nonzero;"/>
            </g>
            <g transform="matrix(-2,0,0,2,7428.12,5534.73)">
                <rect x="1855.78" y="71.16" width="2.49" height="11.006" style="fill:rgb(35,31,32);"/>
            </g>
            <g transform="matrix(2,0,0,2,3587.43,5697.47)">
                <path d="M0,-32.438C-0.771,-32.137 -1.457,-31.471 -2.066,-30.932C-2.574,-30.485 -3.1,-30.02 -3.549,-29.514C-5.1,-27.758 -6.268,-25.686 -7.352,-23.624C-7.904,-22.571 -8.439,-21.528 -8.863,-20.417C-9.24,-19.43 -9.641,-18.444 -9.789,-17.393C-9.928,-16.42 -10.158,-15.473 -10.193,-14.489C-10.23,-13.424 -10.156,-12.368 -10.049,-11.313C-9.852,-9.34 -9.102,-7.422 -8.379,-5.59C-8.197,-5.126 -8.045,-4.674 -7.824,-4.235C-7.66,-3.907 -7.439,-3.59 -7.236,-3.28C-6.92,-2.807 -6.605,-2.317 -6.244,-1.874C-5.996,-1.573 -5.695,-1.215 -5.311,-1.077C-4.602,-0.833 -3.877,-0.643 -3.15,-0.448C-0.992,0.134 1.242,0.529 3.449,0.66C4.805,0.74 6.187,0.71 7.559,0.636C8.705,0.58 9.844,0.498 10.971,0.347C13.311,0.041 15.525,-0.657 17.639,-1.7C18.768,-2.258 19.865,-2.895 20.871,-3.663C21.83,-4.395 22.592,-5.258 23.309,-6.227C24.393,-7.688 25.279,-9.297 25.969,-10.981C26.199,-11.54 26.436,-12.079 26.615,-12.661C26.75,-13.102 26.82,-13.614 26.668,-13.952C26.355,-14.649 25.836,-15.276 25.375,-15.881C24.281,-17.323 23.1,-18.692 21.977,-20.108C20.973,-21.368 20.02,-22.608 18.781,-23.631C17.986,-24.288 17.205,-24.975 16.502,-25.731C15.807,-26.479 15.227,-27.344 14.576,-28.135C12.891,-30.192 10.773,-31.987 8.129,-32.606C6.773,-32.928 5.346,-33.178 3.951,-33.092C3.285,-33.049 2.568,-32.979 1.869,-32.877C1.213,-32.782 0.576,-32.667 0,-32.438" style="fill:rgb(7,78,162);fill-rule:nonzero;"/>
            </g>
            <g transform="matrix(2,0,0,2,3611.85,5619.72)">
                <path d="M0,-19.166C-0.994,-19.236 -2.191,-18.418 -2.963,-17.779C-3.592,-17.26 -4.148,-16.664 -4.697,-16.066C-5.404,-15.295 -6.102,-14.541 -6.693,-13.723C-7.316,-12.854 -7.818,-11.904 -8.281,-10.881C-8.678,-10 -9.135,-9.145 -9.377,-8.201C-9.623,-7.246 -9.773,-6.293 -9.74,-5.303C-9.703,-4.279 -9.568,-3.219 -9.344,-2.217C-9.08,-1.092 -8.686,-0.492 -7.521,-0.213C-6.35,0.07 -5.266,-0.354 -4.164,-0.705C-3.592,-0.883 -3.021,-1.076 -2.455,-1.184C-2.045,-1.264 -1.643,-1.277 -1.209,-1.332C0.061,-1.5 1.242,-1.9 2.387,-2.463C3.398,-2.957 4.459,-3.529 5.164,-4.428C5.65,-5.045 5.988,-5.703 6.215,-6.387C6.492,-7.246 6.525,-8.145 6.469,-9.051C6.402,-10.105 6.186,-11.174 5.803,-12.201C5.258,-13.635 4.473,-14.992 3.645,-16.139C3.178,-16.781 2.648,-17.324 2.076,-17.869C1.514,-18.408 0.672,-19.166 0,-19.166" style="fill:rgb(237,28,36);fill-rule:nonzero;"/>
            </g>
            <g transform="matrix(2,0,0,2,3647.06,5617.74)">
                <path d="M0,32.324C-1.197,33.5 -2.443,34.562 -3.76,35.595C-4.658,36.297 -5.566,36.99 -6.426,37.744C-6.877,38.14 -7.355,38.586 -7.832,38.959C-8.039,39.121 -8.248,39.234 -8.451,39.4C-9.088,39.912 -9.654,40.189 -10.297,40.545C-10.76,40.799 -11.236,41.072 -11.697,41.295C-12.256,41.56 -12.814,41.844 -13.381,42.049C-14.006,42.277 -14.645,42.447 -15.293,42.652C-16.248,42.865 -17.184,43.131 -18.133,43.365C-18.754,43.513 -19.375,43.662 -20.008,43.734C-20.775,43.82 -21.537,43.928 -22.301,44.039C-23.135,44.164 -23.971,44.291 -24.812,44.281C-25.584,44.342 -26.357,44.226 -27.115,44.099C-27.521,44.031 -27.91,43.894 -28.311,43.799C-28.791,43.683 -29.285,43.625 -29.764,43.49C-30.545,43.265 -31.275,42.84 -31.992,42.453C-32.568,42.148 -33.16,41.861 -33.662,41.429C-34.16,41.097 -34.68,40.765 -35.107,40.349C-35.406,40.062 -35.633,39.709 -35.898,39.39C-36.152,39.08 -36.412,38.824 -36.604,38.467C-36.803,38.094 -36.988,37.627 -37.174,37.232C-37.299,36.976 -37.436,36.76 -37.537,36.506C-37.607,36.314 -37.705,36.047 -37.75,35.847C-37.795,35.679 -37.789,35.582 -37.83,35.414C-37.857,35.256 -37.959,35.131 -38.004,35.004C-38.055,34.875 -38.055,34.742 -38.041,34.57C-38.395,33.113 -38.359,31.613 -38.305,30.129C-38.268,29.136 -38.23,28.131 -38.139,27.142C-38.098,26.676 -38.043,26.191 -37.896,25.742C-37.705,25.158 -37.496,24.578 -37.287,24.002C-37.045,23.326 -36.83,22.625 -36.588,21.961C-36.439,21.56 -36.26,21.191 -36.068,20.808C-35.605,19.888 -35.092,18.99 -34.656,18.06C-34.285,17.269 -33.895,16.486 -33.426,15.748C-32.85,14.84 -32.234,13.945 -31.592,13.082C-31.01,12.301 -30.508,11.76 -30.186,11.359C-29.672,10.72 -29.158,10.07 -28.623,9.445C-28.15,8.976 -27.684,8.447 -27.273,7.922C-26.93,7.486 -26.562,7.148 -26.178,6.763C-25.867,6.455 -25.539,6.103 -25.234,5.781C-24.496,5.01 -23.771,4.22 -22.998,3.484C-22.404,2.922 -21.809,2.361 -21.301,1.72C-21.107,1.414 -20.904,1.455 -20.715,1.74C-19.652,3.041 -18.635,4.371 -17.652,5.742C-17.105,6.508 -16.541,7.283 -16.045,8.076C-15.75,8.57 -15.445,9.064 -15.16,9.564C-14.869,10.072 -14.6,10.58 -14.307,11.088C-13.775,12.002 -13.199,12.908 -12.6,13.787C-12.238,14.32 -11.879,14.863 -11.545,15.412C-11.328,15.765 -11.115,16.135 -10.873,16.47C-10.223,17.363 -9.523,18.213 -8.889,19.115C-8.57,19.754 -8.135,20.324 -7.686,20.896C-7.26,21.437 -6.822,21.982 -6.402,22.502C-5.816,23.224 -5.184,23.898 -4.641,24.656C-4.207,25.258 -3.854,25.91 -3.426,26.519C-2.992,27.328 -2.547,28.131 -2.066,28.918C-1.83,29.314 -1.588,29.722 -1.322,30.099C-1.164,30.316 -1,30.513 -0.83,30.719C-0.531,31.082 -0.205,31.459 0.018,31.914C0.141,32.045 0.141,32.213 0,32.324M-21.887,-2.365L-22.699,-3.59C-23.012,-4.291 -23.258,-5.018 -23.502,-5.746C-23.609,-6.213 -23.637,-6.686 -23.613,-7.162C-23.562,-7.621 -23.434,-8.037 -23.273,-8.465C-23.186,-8.696 -23.146,-8.947 -23.055,-9.156C-22.971,-9.344 -22.84,-9.498 -22.699,-9.676C-22.432,-9.938 -22.23,-10.24 -21.937,-10.477C-21.301,-10.99 -20.639,-11.604 -19.895,-11.922C-19.652,-12.024 -19.336,-12.094 -19.053,-12.155C-18.826,-12.199 -18.652,-12.266 -18.418,-12.276C-18.127,-12.283 -17.834,-12.239 -17.557,-12.174C-17.049,-12.049 -16.592,-11.809 -16.275,-11.377C-15.316,-10.34 -15.174,-8.936 -15.727,-7.649C-16.197,-6.203 -17.094,-4.906 -18.031,-3.737C-18.635,-2.979 -19.211,-2.356 -19.861,-1.645C-19.932,-1.565 -20.131,-1.369 -20.244,-1.233C-20.42,-1.016 -20.584,-0.76 -20.758,-0.709C-20.895,-0.668 -20.998,-0.76 -21.096,-0.975L-21.887,-2.365ZM7.338,38.929C6.988,38.502 6.6,38.08 6.238,37.629C5.908,37.232 5.543,36.847 5.187,36.457C4.984,36.232 4.725,36.037 4.566,35.754C4.373,35.422 4.104,35.232 3.828,34.976C3.539,34.711 3.572,34.465 3.127,33.963C2.771,33.564 2.434,33.129 2.088,32.711C1.971,32.576 1.855,32.375 2.049,32.238C2.381,31.879 2.73,31.504 3.043,31.125C3.381,30.711 3.67,30.261 4.016,29.853C4.324,29.494 4.662,29.156 4.965,28.789C5.262,28.433 5.479,28.021 5.768,27.658C5.961,27.422 6.158,27.211 6.35,26.969C6.477,26.804 6.6,26.609 6.723,26.447C7.029,26.031 7.729,25.207 7.559,24.738C7.535,24.689 7.396,24.529 7.281,24.422C7.24,24.387 7.187,24.261 7.113,24.258C7.033,24.25 6.869,24.338 6.797,24.336C6.537,24.318 5.904,25.332 5.561,25.605C5.295,26.015 4.984,26.33 4.719,26.715C4.521,27.002 4.346,27.312 4.154,27.601C3.73,28.252 3.162,28.76 2.646,29.336C2.27,29.756 1.92,30.263 1.562,30.705C1.236,31.111 1.078,31.17 0.818,30.762C0.051,29.803 -0.633,28.789 -1.244,27.742C-1.977,26.482 -2.654,25.183 -3.512,24C-3.98,23.41 -4.473,22.795 -4.951,22.22C-5.301,21.808 -5.637,21.381 -5.973,20.976C-6.17,20.734 -6.416,20.564 -6.592,20.273C-6.713,20.072 -6.877,19.888 -7,19.691C-8.031,18.011 -8.135,18.013 -8.699,17.174C-8.943,16.812 -9.139,16.422 -9.414,16.084C-9.711,15.672 -10.037,15.273 -10.338,14.857C-10.732,14.304 -11.055,13.762 -11.432,13.193C-11.963,12.388 -12.539,11.554 -13.033,10.72C-13.143,10.535 -13.232,10.383 -13.334,10.197C-13.594,9.732 -13.855,9.275 -14.137,8.82C-14.391,8.418 -14.672,8.017 -14.922,7.609C-15.066,7.363 -15.188,7.117 -15.316,6.865C-15.541,6.418 -15.857,6.074 -16.158,5.67C-16.396,5.344 -16.619,4.957 -16.83,4.613C-17.15,4.162 -17.477,3.719 -17.816,3.277C-18.016,3.021 -18.252,2.806 -18.449,2.562C-18.641,2.32 -18.822,2.06 -19.012,1.832C-19.318,1.457 -19.629,1.072 -19.945,0.707C-20.047,0.594 -20.104,0.482 -20.076,0.379C-20.012,0.148 -19.588,-0.098 -19.408,-0.285C-18.918,-0.813 -18.443,-1.406 -17.986,-1.961C-17.393,-2.692 -16.811,-3.44 -16.275,-4.217C-15.699,-4.99 -15.221,-5.864 -14.867,-6.758C-14.479,-7.748 -14.24,-8.36 -14.221,-9.201C-14.209,-9.569 -14.182,-10.047 -14.313,-10.496C-14.854,-12.342 -16.582,-13.299 -18.121,-13.303C-18.969,-13.305 -19.816,-13.08 -20.607,-12.787C-21.365,-12.328 -21.531,-12.182 -22.209,-11.606C-22.191,-11.614 -23.062,-10.912 -23.049,-10.92C-23.236,-10.768 -23.328,-10.656 -23.416,-10.565C-23.514,-10.461 -23.609,-10.369 -23.768,-10.149C-24.072,-9.729 -24.264,-9.25 -24.432,-8.762C-24.646,-8.129 -24.873,-7.535 -24.924,-6.869C-25.004,-5.436 -24.324,-4.018 -23.705,-2.77C-23.32,-2.221 -22.932,-1.631 -22.588,-1.055C-22.322,-0.617 -22.113,-0.219 -21.877,0.232C-21.791,0.394 -21.937,0.58 -22.09,0.762C-22.301,1.012 -22.57,1.254 -22.719,1.418C-23.186,1.931 -23.66,2.488 -24.145,2.98C-24.484,3.326 -24.859,3.646 -25.207,3.984C-25.641,4.404 -26.055,4.842 -26.471,5.283C-28.4,7.107 -29.988,9.256 -31.736,11.246C-32.211,11.849 -32.676,12.51 -33.117,13.142C-33.59,13.82 -34.063,14.504 -34.498,15.195C-34.934,15.887 -35.359,16.578 -35.764,17.291C-36.295,18.488 -36.91,19.627 -37.52,20.781C-37.682,21.303 -37.896,21.818 -38.082,22.34C-38.551,23.666 -39.076,24.914 -39.297,26.262C-39.459,26.871 -39.467,27.422 -39.496,28.015C-39.5,28.262 -39.523,28.709 -39.563,28.951C-39.602,29.17 -39.664,29.176 -39.674,29.392C-39.691,29.621 -39.652,29.849 -39.641,30.088C-39.748,30.584 -39.672,31.129 -39.697,31.631C-39.709,31.879 -39.775,32.045 -39.783,32.277C-39.785,32.513 -39.732,32.873 -39.705,33.121C-39.658,33.367 -39.641,33.582 -39.58,33.822C-39.496,34.152 -39.543,34.445 -39.51,34.781C-39.482,35 -39.398,34.871 -39.32,35.472C-39.273,35.818 -39.162,36.203 -39.055,36.535C-38.816,37.256 -38.518,37.959 -38.168,38.656C-37.947,39.092 -37.711,39.545 -37.43,39.931C-36.582,41.117 -35.475,42.135 -34.271,42.959C-33.574,43.439 -32.766,43.728 -32.002,44.086C-31.377,44.379 -30.703,44.531 -30.078,44.834C-29.559,44.947 -29.039,45.045 -28.529,45.146C-28.187,45.217 -27.848,45.287 -27.504,45.357C-27.061,45.447 -26.748,45.429 -26.371,45.457C-26.059,45.482 -25.748,45.527 -25.437,45.547C-23.951,45.629 -22.422,45.422 -20.961,45.234C-20.639,45.183 -20.277,45.078 -19.959,45.021C-19.379,44.92 -18.939,44.918 -18.275,44.756C-17.326,44.523 -16.357,44.299 -15.406,44.056C-14.988,43.949 -14.572,43.797 -14.164,43.672C-13.824,43.57 -13.492,43.504 -13.164,43.385C-12.238,43.06 -11.359,42.662 -10.496,42.16C-10.014,41.947 -9.57,41.658 -9.135,41.361C-8.508,40.928 -7.811,40.613 -7.195,40.17C-6.029,39.332 -4.957,38.402 -3.877,37.455C-2.342,36.101 -0.695,34.92 0.789,33.5C0.914,33.234 1.088,33.515 1.18,33.644C1.404,33.967 1.637,34.33 1.879,34.637C2.094,34.908 2.631,35.525 2.846,35.789C3.195,36.226 3.246,36.156 3.359,36.269C3.479,36.39 3.572,36.556 3.707,36.629C3.861,36.711 3.951,36.824 4.053,36.963C4.318,37.33 4.674,37.726 5,38.123C5.131,38.281 5.258,38.459 5.373,38.629C5.531,38.869 5.695,38.941 5.814,39.105C5.996,39.357 5.904,39.443 6.209,39.879C6.367,40.107 6.592,40.076 6.943,39.945C7.062,39.898 7.158,39.918 7.242,39.879C7.4,39.808 7.57,39.336 7.338,38.929" style="fill:rgb(35,31,32);fill-rule:nonzero;"/>
            </g>
        </g>
    </g>
</svg>
